<mxfile host="Electron" modified="2023-08-01T12:17:13.929Z" agent="Mozilla/5.0 (Macintosh; Intel Mac OS X 10_15_7) AppleWebKit/537.36 (KHTML, like Gecko) draw.io/21.6.5 Chrome/114.0.5735.243 Electron/25.3.1 Safari/537.36" etag="Ui4zCo1_UW4UX4anGO3k" version="21.6.5" type="device">
  <diagram id="ueo7mvtwTdWJJ7_IZG4s" name="Seite-1">
    <mxGraphModel dx="851" dy="836" grid="1" gridSize="10" guides="1" tooltips="1" connect="1" arrows="1" fold="1" page="1" pageScale="1" pageWidth="1169" pageHeight="827" math="0" shadow="0">
      <root>
        <mxCell id="0" />
        <mxCell id="1" parent="0" />
        <mxCell id="s7-O6_pRk4wT5dMBqMyE-7" value="" style="rounded=1;whiteSpace=wrap;html=1;fillColor=#a8226e;strokeColor=#a8226e;opacity=20;arcSize=7;" parent="1" vertex="1">
          <mxGeometry x="795" y="200" width="290" height="460" as="geometry" />
        </mxCell>
        <mxCell id="GqR5pssrANM1ScbAsOte-49" value="" style="html=1;align=center;verticalAlign=top;rounded=1;absoluteArcSize=1;arcSize=20;dashed=1;whiteSpace=wrap;fillColor=none;strokeColor=#0e8088;strokeWidth=3;movable=1;resizable=1;rotatable=1;deletable=1;editable=1;locked=0;connectable=1;" parent="1" vertex="1">
          <mxGeometry x="185" y="170" width="930" height="507" as="geometry" />
        </mxCell>
        <mxCell id="dbxVvf7TO5qbxegbxdF4-1" value="" style="rounded=1;whiteSpace=wrap;html=1;fillColor=#77429a;strokeColor=#77429a;opacity=20;arcSize=21;strokeWidth=2;spacingBottom=0;" parent="1" vertex="1">
          <mxGeometry x="265" y="500" width="104.99" height="160" as="geometry" />
        </mxCell>
        <mxCell id="f384Gzy_vKeY-QHFfYG0-15" value="fullnode&lt;br style=&quot;border-color: var(--border-color); padding: 0px; margin: 0px;&quot;&gt;&lt;span style=&quot;&quot;&gt;RPC endpoint&lt;/span&gt;" style="rounded=1;whiteSpace=wrap;html=1;labelPosition=center;verticalLabelPosition=top;align=center;verticalAlign=bottom;fillColor=none;opacity=30;strokeWidth=2;" parent="1" vertex="1">
          <mxGeometry x="805" y="301" width="120" height="340" as="geometry" />
        </mxCell>
        <mxCell id="GqR5pssrANM1ScbAsOte-3" value="" style="rounded=1;whiteSpace=wrap;html=1;fillColor=#8dc542;strokeColor=#82b366;opacity=20;arcSize=7;strokeWidth=2;" parent="1" vertex="1">
          <mxGeometry x="395" y="200" width="380" height="460" as="geometry" />
        </mxCell>
        <mxCell id="GqR5pssrANM1ScbAsOte-1" value="" style="rounded=0;whiteSpace=wrap;html=1;fillColor=none;strokeColor=#005073;" parent="1" vertex="1">
          <mxGeometry x="55" y="194" width="110" height="440" as="geometry" />
        </mxCell>
        <mxCell id="GqR5pssrANM1ScbAsOte-2" value="Actors" style="text;html=1;align=center;verticalAlign=middle;resizable=0;points=[];autosize=1;strokeColor=none;fillColor=none;" parent="1" vertex="1">
          <mxGeometry x="75" y="194" width="60" height="30" as="geometry" />
        </mxCell>
        <mxCell id="GqR5pssrANM1ScbAsOte-10" value="Smartcontract" style="text;html=1;align=center;verticalAlign=middle;resizable=0;points=[];autosize=1;strokeColor=none;fillColor=none;" parent="1" vertex="1">
          <mxGeometry x="952.8299999999999" y="274" width="100" height="30" as="geometry" />
        </mxCell>
        <mxCell id="GqR5pssrANM1ScbAsOte-12" value="API layer" style="rounded=1;whiteSpace=wrap;html=1;fillColor=none;labelPosition=center;verticalLabelPosition=top;align=center;verticalAlign=bottom;strokeWidth=2;opacity=30;" parent="1" vertex="1">
          <mxGeometry x="505" y="300" width="110" height="341" as="geometry" />
        </mxCell>
        <mxCell id="GqR5pssrANM1ScbAsOte-32" style="edgeStyle=orthogonalEdgeStyle;rounded=0;orthogonalLoop=1;jettySize=auto;html=1;entryX=-0.019;entryY=0.791;entryDx=0;entryDy=0;entryPerimeter=0;" parent="1" source="GqR5pssrANM1ScbAsOte-14" target="GqR5pssrANM1ScbAsOte-30" edge="1">
          <mxGeometry relative="1" as="geometry">
            <Array as="points">
              <mxPoint x="785" y="540" />
              <mxPoint x="785" y="508" />
            </Array>
          </mxGeometry>
        </mxCell>
        <mxCell id="GqR5pssrANM1ScbAsOte-14" value="PATCH - violation timestamp" style="text;strokeColor=none;fillColor=none;align=left;verticalAlign=middle;spacingLeft=4;spacingRight=4;overflow=hidden;points=[[0,0.5],[1,0.5]];portConstraint=eastwest;rotatable=0;whiteSpace=wrap;html=1;" parent="1" vertex="1">
          <mxGeometry x="519.85" y="503" width="85" height="60" as="geometry" />
        </mxCell>
        <mxCell id="GqR5pssrANM1ScbAsOte-34" style="edgeStyle=orthogonalEdgeStyle;rounded=0;orthogonalLoop=1;jettySize=auto;html=1;" parent="1" source="GqR5pssrANM1ScbAsOte-15" target="GqR5pssrANM1ScbAsOte-29" edge="1">
          <mxGeometry relative="1" as="geometry">
            <Array as="points">
              <mxPoint x="605" y="338" />
              <mxPoint x="605" y="338" />
            </Array>
          </mxGeometry>
        </mxCell>
        <mxCell id="GqR5pssrANM1ScbAsOte-15" value="POST - new NFT" style="text;strokeColor=none;fillColor=none;align=left;verticalAlign=middle;spacingLeft=4;spacingRight=4;overflow=hidden;points=[[0,0.5],[1,0.5]];portConstraint=eastwest;rotatable=0;whiteSpace=wrap;html=1;" parent="1" vertex="1">
          <mxGeometry x="519.85" y="303" width="85" height="60" as="geometry" />
        </mxCell>
        <mxCell id="GqR5pssrANM1ScbAsOte-33" style="edgeStyle=orthogonalEdgeStyle;rounded=0;orthogonalLoop=1;jettySize=auto;html=1;entryX=0;entryY=0.5;entryDx=0;entryDy=0;" parent="1" source="GqR5pssrANM1ScbAsOte-16" target="GqR5pssrANM1ScbAsOte-30" edge="1">
          <mxGeometry relative="1" as="geometry">
            <Array as="points">
              <mxPoint x="765" y="490" />
              <mxPoint x="765" y="490" />
            </Array>
          </mxGeometry>
        </mxCell>
        <mxCell id="GqR5pssrANM1ScbAsOte-16" value="PATCH - NFT status" style="text;strokeColor=none;fillColor=none;align=left;verticalAlign=middle;spacingLeft=4;spacingRight=4;overflow=hidden;points=[[0,0.5],[1,0.5]];portConstraint=eastwest;rotatable=0;whiteSpace=wrap;html=1;" parent="1" vertex="1">
          <mxGeometry x="519.85" y="438" width="85" height="60" as="geometry" />
        </mxCell>
        <mxCell id="GqR5pssrANM1ScbAsOte-17" value="GET - NFT data" style="text;strokeColor=none;fillColor=none;align=left;verticalAlign=middle;spacingLeft=4;spacingRight=4;overflow=hidden;points=[[0,0.5],[1,0.5]];portConstraint=eastwest;rotatable=0;whiteSpace=wrap;html=1;" parent="1" vertex="1">
          <mxGeometry x="519.85" y="363" width="85" height="60" as="geometry" />
        </mxCell>
        <mxCell id="GqR5pssrANM1ScbAsOte-20" style="edgeStyle=orthogonalEdgeStyle;rounded=0;orthogonalLoop=1;jettySize=auto;html=1;entryX=0;entryY=0.5;entryDx=0;entryDy=0;fillColor=#6d8764;strokeColor=#000000;" parent="1" source="GqR5pssrANM1ScbAsOte-19" target="GqR5pssrANM1ScbAsOte-15" edge="1">
          <mxGeometry relative="1" as="geometry">
            <Array as="points">
              <mxPoint x="255" y="271" />
              <mxPoint x="255" y="333" />
            </Array>
          </mxGeometry>
        </mxCell>
        <mxCell id="GqR5pssrANM1ScbAsOte-21" style="edgeStyle=orthogonalEdgeStyle;rounded=0;orthogonalLoop=1;jettySize=auto;html=1;entryX=0;entryY=0.369;entryDx=0;entryDy=0;fillColor=#6d8764;strokeColor=#000000;entryPerimeter=0;" parent="1" source="GqR5pssrANM1ScbAsOte-19" target="GqR5pssrANM1ScbAsOte-16" edge="1">
          <mxGeometry relative="1" as="geometry">
            <Array as="points">
              <mxPoint x="235" y="291" />
              <mxPoint x="235" y="460" />
            </Array>
          </mxGeometry>
        </mxCell>
        <mxCell id="GqR5pssrANM1ScbAsOte-24" style="edgeStyle=orthogonalEdgeStyle;rounded=0;orthogonalLoop=1;jettySize=auto;html=1;entryX=0;entryY=0.5;entryDx=0;entryDy=0;fillColor=#6d8764;strokeColor=#000000;startArrow=classic;startFill=1;endArrow=none;endFill=0;" parent="1" source="GqR5pssrANM1ScbAsOte-19" target="GqR5pssrANM1ScbAsOte-17" edge="1">
          <mxGeometry relative="1" as="geometry">
            <Array as="points">
              <mxPoint x="245" y="281" />
              <mxPoint x="245" y="393" />
            </Array>
          </mxGeometry>
        </mxCell>
        <mxCell id="GqR5pssrANM1ScbAsOte-19" value="&lt;font color=&quot;#000000&quot;&gt;Sender / Owner&lt;/font&gt;" style="sketch=0;outlineConnect=0;fillColor=#6d8764;strokeColor=#3A5431;dashed=0;verticalLabelPosition=bottom;verticalAlign=top;align=center;html=1;fontSize=12;fontStyle=0;aspect=fixed;pointerEvents=1;shape=mxgraph.aws4.user;fontColor=#ffffff;" parent="1" vertex="1">
          <mxGeometry x="87.09" y="254" width="50" height="50" as="geometry" />
        </mxCell>
        <mxCell id="GqR5pssrANM1ScbAsOte-28" value="" style="rounded=1;whiteSpace=wrap;html=1;fillColor=none;strokeWidth=2;opacity=30;" parent="1" vertex="1">
          <mxGeometry x="948.5" y="301" width="106.5" height="340" as="geometry" />
        </mxCell>
        <mxCell id="GqR5pssrANM1ScbAsOte-29" value="Minting" style="text;strokeColor=none;fillColor=none;align=center;verticalAlign=middle;spacingLeft=4;spacingRight=4;overflow=hidden;points=[[0,0.5],[1,0.5]];portConstraint=eastwest;rotatable=0;whiteSpace=wrap;html=1;" parent="1" vertex="1">
          <mxGeometry x="961" y="309" width="85" height="60" as="geometry" />
        </mxCell>
        <mxCell id="GqR5pssrANM1ScbAsOte-30" value="Updating contract variables" style="text;strokeColor=none;fillColor=none;align=center;verticalAlign=middle;spacingLeft=4;spacingRight=4;overflow=hidden;points=[[0,0.5],[1,0.5]];portConstraint=eastwest;rotatable=0;whiteSpace=wrap;html=1;" parent="1" vertex="1">
          <mxGeometry x="961" y="460" width="85" height="60" as="geometry" />
        </mxCell>
        <mxCell id="cSIzYIwrL9WgtXfXf9EQ-5" style="edgeStyle=orthogonalEdgeStyle;rounded=0;orthogonalLoop=1;jettySize=auto;html=1;exitX=0.5;exitY=0;exitDx=0;exitDy=0;exitPerimeter=0;" parent="1" source="GqR5pssrANM1ScbAsOte-35" target="GqR5pssrANM1ScbAsOte-14" edge="1">
          <mxGeometry relative="1" as="geometry">
            <Array as="points">
              <mxPoint x="318" y="533" />
            </Array>
          </mxGeometry>
        </mxCell>
        <mxCell id="GqR5pssrANM1ScbAsOte-35" value="attached to&#xa;artwork" style="outlineConnect=0;dashed=0;verticalLabelPosition=bottom;verticalAlign=top;align=center;shape=mxgraph.aws3.hardware_board;fillColor=#5294CF;gradientColor=none;labelPosition=center;spacingBottom=0;spacingTop=-5;" parent="1" vertex="1">
          <mxGeometry x="281.49" y="537.9300000000001" width="72" height="86.14" as="geometry" />
        </mxCell>
        <mxCell id="hDjlnW6x61JkgasZO3AA-2" value="" style="edgeStyle=orthogonalEdgeStyle;rounded=0;orthogonalLoop=1;jettySize=auto;html=1;entryX=0.006;entryY=0.733;entryDx=0;entryDy=0;entryPerimeter=0;strokeColor=#000000;" parent="1" source="GqR5pssrANM1ScbAsOte-37" target="GqR5pssrANM1ScbAsOte-16" edge="1">
          <mxGeometry relative="1" as="geometry">
            <Array as="points">
              <mxPoint x="215" y="520" />
              <mxPoint x="215" y="482" />
            </Array>
          </mxGeometry>
        </mxCell>
        <mxCell id="GqR5pssrANM1ScbAsOte-37" value="&lt;font color=&quot;#000000&quot;&gt;Recipient&lt;br&gt;&lt;/font&gt;" style="sketch=0;outlineConnect=0;fontColor=#ffffff;fillColor=#76608a;strokeColor=#432D57;dashed=0;verticalLabelPosition=bottom;verticalAlign=top;align=center;html=1;fontSize=12;fontStyle=0;aspect=fixed;pointerEvents=1;shape=mxgraph.aws4.user;" parent="1" vertex="1">
          <mxGeometry x="87.09" y="500" width="50" height="50" as="geometry" />
        </mxCell>
        <mxCell id="GqR5pssrANM1ScbAsOte-39" value="Backend Server" style="text;html=1;align=center;verticalAlign=middle;resizable=0;points=[];autosize=1;strokeColor=none;fillColor=none;" parent="1" vertex="1">
          <mxGeometry x="427.8" y="207" width="110" height="30" as="geometry" />
        </mxCell>
        <mxCell id="GqR5pssrANM1ScbAsOte-44" value="Application Layer" style="text;html=1;align=center;verticalAlign=middle;resizable=0;points=[];autosize=1;strokeColor=none;fillColor=none;" parent="1" vertex="1">
          <mxGeometry x="635" y="274" width="120" height="30" as="geometry" />
        </mxCell>
        <mxCell id="GqR5pssrANM1ScbAsOte-45" value="..." style="text;strokeColor=none;fillColor=none;align=center;verticalAlign=middle;spacingLeft=4;spacingRight=4;overflow=hidden;points=[[0,0.5],[1,0.5]];portConstraint=eastwest;rotatable=0;whiteSpace=wrap;html=1;" parent="1" vertex="1">
          <mxGeometry x="514.85" y="563" width="85" height="60" as="geometry" />
        </mxCell>
        <mxCell id="GqR5pssrANM1ScbAsOte-50" value="&lt;font color=&quot;#0d8088&quot;&gt;Artwork Tracking System - ARTIS&lt;/font&gt;" style="text;html=1;align=center;verticalAlign=middle;resizable=0;points=[];autosize=1;strokeColor=#0e8088;fillColor=#b0e3e6;opacity=0;" parent="1" vertex="1">
          <mxGeometry x="185" y="168.5" width="200" height="30" as="geometry" />
        </mxCell>
        <mxCell id="cSIzYIwrL9WgtXfXf9EQ-8" style="edgeStyle=orthogonalEdgeStyle;rounded=0;orthogonalLoop=1;jettySize=auto;html=1;exitX=0;exitY=0.5;exitDx=0;exitDy=0;entryX=1.016;entryY=0.603;entryDx=0;entryDy=0;entryPerimeter=0;" parent="1" source="GqR5pssrANM1ScbAsOte-52" target="GqR5pssrANM1ScbAsOte-17" edge="1">
          <mxGeometry relative="1" as="geometry" />
        </mxCell>
        <mxCell id="GqR5pssrANM1ScbAsOte-52" value="Retrieving contract variables" style="text;strokeColor=none;fillColor=none;align=center;verticalAlign=middle;spacingLeft=4;spacingRight=4;overflow=hidden;points=[[0,0.5],[1,0.5]];portConstraint=eastwest;rotatable=0;whiteSpace=wrap;html=1;" parent="1" vertex="1">
          <mxGeometry x="959.25" y="368.52" width="85" height="60" as="geometry" />
        </mxCell>
        <mxCell id="1ouffjeRAv1VJQCSkiRg-1" value="" style="image;aspect=fixed;perimeter=ellipsePerimeter;html=1;align=center;shadow=0;dashed=0;fontColor=#4277BB;labelBackgroundColor=default;fontSize=12;spacingTop=3;image=img/lib/ibm/infrastructure/mobile_backend.svg;" parent="1" vertex="1">
          <mxGeometry x="405" y="209.5" width="25" height="25" as="geometry" />
        </mxCell>
        <mxCell id="1ouffjeRAv1VJQCSkiRg-2" value="" style="points=[[0.35,0,0],[0.98,0.51,0],[1,0.71,0],[0.67,1,0],[0,0.795,0],[0,0.65,0]];verticalLabelPosition=bottom;sketch=0;html=1;verticalAlign=top;aspect=fixed;align=center;pointerEvents=1;shape=mxgraph.cisco19.user;fillColor=#005073;strokeColor=none;" parent="1" vertex="1">
          <mxGeometry x="59" y="198.5" width="21" height="21" as="geometry" />
        </mxCell>
        <mxCell id="YJsinMg0PK696agXTrmT-1" value="" style="image;aspect=fixed;perimeter=ellipsePerimeter;html=1;align=center;shadow=0;dashed=0;fontColor=#4277BB;labelBackgroundColor=default;fontSize=12;spacingTop=3;image=img/lib/ibm/blockchain/smart_contract.svg;" parent="1" vertex="1">
          <mxGeometry x="1046" y="291.15" width="25.5" height="25.5" as="geometry" />
        </mxCell>
        <mxCell id="YJsinMg0PK696agXTrmT-3" value="" style="shadow=0;dashed=0;html=1;strokeColor=none;fillColor=#EF8F21;labelPosition=center;verticalLabelPosition=bottom;verticalAlign=top;align=center;outlineConnect=0;shape=mxgraph.veeam.2d.restful_apis;" parent="1" vertex="1">
          <mxGeometry x="604.85" y="295" width="17.8" height="17.8" as="geometry" />
        </mxCell>
        <mxCell id="cSIzYIwrL9WgtXfXf9EQ-6" value="Authentication layer" style="rounded=1;whiteSpace=wrap;html=1;fillColor=#28a8e0;labelPosition=center;verticalLabelPosition=top;align=center;verticalAlign=bottom;strokeColor=default;opacity=30;strokeWidth=2;" parent="1" vertex="1">
          <mxGeometry x="415" y="301" width="70" height="341" as="geometry" />
        </mxCell>
        <mxCell id="YJsinMg0PK696agXTrmT-5" value="" style="sketch=0;outlineConnect=0;fontColor=#232F3E;gradientColor=none;fillColor=#BF0816;strokeColor=none;dashed=0;verticalLabelPosition=middle;verticalAlign=middle;align=right;html=1;fontSize=12;fontStyle=0;aspect=fixed;pointerEvents=1;shape=mxgraph.aws4.addon;rotation=90;labelPosition=left;direction=east;" parent="1" vertex="1">
          <mxGeometry x="431.0099999999999" y="565.51" width="38" height="19.49" as="geometry" />
        </mxCell>
        <mxCell id="s7-O6_pRk4wT5dMBqMyE-1" value="role-based&lt;br&gt;authorization" style="sketch=0;pointerEvents=1;shadow=0;dashed=0;html=1;strokeColor=none;labelPosition=center;verticalLabelPosition=bottom;verticalAlign=top;align=center;fillColor=#BF0816;shape=mxgraph.mscae.intune.policy" parent="1" vertex="1">
          <mxGeometry x="986.6400000000001" y="563.5599999999998" width="32.37" height="32.37" as="geometry" />
        </mxCell>
        <mxCell id="s7-O6_pRk4wT5dMBqMyE-3" value="signature&lt;br&gt;verification" style="text;html=1;strokeColor=none;fillColor=none;align=center;verticalAlign=middle;whiteSpace=wrap;rounded=0;" parent="1" vertex="1">
          <mxGeometry x="419.9999999999999" y="593" width="60" height="30" as="geometry" />
        </mxCell>
        <mxCell id="s7-O6_pRk4wT5dMBqMyE-8" value="" style="image;aspect=fixed;perimeter=ellipsePerimeter;html=1;align=center;shadow=0;dashed=0;fontColor=#4277BB;labelBackgroundColor=default;fontSize=12;spacingTop=3;image=img/lib/ibm/blockchain/blockchain.svg;" parent="1" vertex="1">
          <mxGeometry x="805" y="207" width="25" height="25" as="geometry" />
        </mxCell>
        <mxCell id="s7-O6_pRk4wT5dMBqMyE-9" value="Blockchain" style="text;html=1;strokeColor=none;fillColor=none;align=center;verticalAlign=middle;whiteSpace=wrap;rounded=0;" parent="1" vertex="1">
          <mxGeometry x="835" y="204.5" width="60" height="30" as="geometry" />
        </mxCell>
        <mxCell id="GqR5pssrANM1ScbAsOte-43" value="Request processing&lt;br&gt;(validation,&lt;br&gt;etc...)&lt;br&gt;&amp;amp;&lt;br&gt;Blockchain interaction" style="rounded=1;whiteSpace=wrap;html=1;fillColor=none;opacity=30;strokeWidth=2;" parent="1" vertex="1">
          <mxGeometry x="635" y="300" width="120" height="341" as="geometry" />
        </mxCell>
        <mxCell id="YJsinMg0PK696agXTrmT-2" value="" style="sketch=0;pointerEvents=1;shadow=0;dashed=0;html=1;strokeColor=none;fillColor=#505050;labelPosition=center;verticalLabelPosition=bottom;verticalAlign=top;outlineConnect=0;align=center;shape=mxgraph.office.servers.server_side_code;" parent="1" vertex="1">
          <mxGeometry x="740" y="295" width="21" height="24" as="geometry" />
        </mxCell>
        <mxCell id="86zaH9uUKHAtfl72U_Nx-1" value="" style="shape=image;verticalLabelPosition=bottom;labelBackgroundColor=default;verticalAlign=top;aspect=fixed;imageAspect=0;image=data:image/png,iVBORw0KGgoAAAANSUhEUgAAAvAAAALwCAYAAADxpkF6AAAABmJLR0QA/wD/AP+gvaeTAAAgAElEQVR4nO3defhtZ13f/ffJSQiZCCGAIBYCGIIEGRQEcUDQotaxVRFbwdnHVupQxQ7WSqvWq9o+iKKPVsUqOOCsoGJRFEUKfRRBqZIwQwRkCISEIdNJ/9gHTcjJyW/Ye91r7f16Xdf3ipfRdb7rvs8v+/O7973uVQAAAAAAAAAAAAAAAAAAAAAAAAAAAAAAAAAAAAAAAAAAAAAAAAAAAAAAAAAAAAAAAAAAAAAAAAAAAAAAAAAAAAAAAAAAAAAAAAAAAAAAAAAAAAAAAAAAAAAAAAAAAAAAAAAAAAAAAAAAAAAAAAAAAAAAAAAAAAAAAAAAAAAAAAAAAAAAAAAAAAAAAAAAAAAAAAAAAAAAAAAAAAAAAAAAAAAAAAAAAAAAAAAAAAAAAAAAAAAAAAAAAAAAAAAAAAAAAAAAAAAAAAAAAAAAAAAAAAAAAAAAAAAAAAAAAAAAAAAAAAAAAAAAAAAAAAAAAAAAAAAAAAAAAAAAAAAAAAAAAAAAAAAAAAAAAAAAAAAAAAAAAAAAAAAAAAAAAAAAAAAAAAAAAAAAAAAAAAAAAAAAAAAAAAAAAAAAAAAAAAAAAAAAAAAAAAAAAAAAAAAAAAAAAAAAAAAAAAAAAAAAAAAAAAAAAAAAAAAAAAAAAAAAAAAAAAAAAAAAAAAAAAAAAAAAAAAAAAAAAAAAAAAAAAAAAAAAAAAAAAAAAAAAAAAAAAAAAAAAAAAAAAAAAAAAAAAAAAAAAAAAAAAAAAAAAAAAAAAAAAAAAAAAAAAAAAAAAAAAAAAAAAAs0pHRDQAAi3Ob6p7VhcfrgurM6tzqrOP/822q91XvOv7P91dvrl51vF5dXTFx37AVBHgA4Nbcu/qk6pHVJ7QK76eu4bp/W/3/1R9Vf1z9aXXdGq4LAAA75Wj16dXTq8uqGyaqK6vnVl9dnbfxuwQAgIX7+OoHq7c2XWi/pbq6+o3qcdUZm7xpAABYklOqz6le0vjQfkv17uqp1V03NAYAADB7p1dPqC5pfEDfa32g+pnqPhsYDwAAmK3Pqd7Y+EB+0Lq21Yr8ueseGAAAmJMHtTrtZXQAX1e9o/rGVtuAAABga5xVPa3VEY2jQ/cm6kXVxWsbLQAAGOji6i8bH7I3Xe9vtRoPAACL9YTqvY0P11PWr+YMeQAAFubs6tcaH6ZH1Wurjzn0KAIAwATOb7UnfHSIHl1XVZ9xyLEEAICNuqBlneu+6bq6+pLDDCgAAGzK/avLGh+a51bHqicdYlwBAGDtHlBd3viwPOf6lgOPLgAArNE9qzc3PiDPvY5VX36wIQYAgPW4U/XKxofjpdQ11WceaKQBAOCQzqxe2vhQvLS6snroAcYbAAAO5acaH4aXWpdVd9z/kAMAwMF8deND8NLrt6sj+x14mIOjoxsAAPblo6tfqU4b3cjCXVhdUb14dCMAAGyv06u/avzq9bbU1dVD9jUDAACwD/+h8aF32+oV+TaDhbGFBgCW4cLq56pTRzeyZe7c6iVYttIAALA2R6rfa/xq9bbWFdVd9zwbAABwK/5x40PuttfT9zwbAABwEkeqlzU+4G57HasevMc5gaFOGd0AAHBSX1g9cHQTO+BI9W9GNwF74QUGADBfp1R/Xj1gdCM74vrqo6pXjW4ETsYKPADM12ckvE/paPXNo5sAAGC5fqPxe8N3rd7X6mhJmC0r8AAwTx9R/aPRTeygM6ovHd0EnIwADwDz9FV5adMoXzK6ATgZD7ECwDy9qvrI0U3ssIuqS0c3ASdiBR4A5ud+Ce+jWYVntgR4AJifzxndAD12dANwSwR4AJifzx3dAN2v+vDRTcCJCPAAMC/nVg8b3QRVfeLoBuBEBHgAmJeHtnqhEON98ugG4EQEeACYl48b3QB/55GjG4ATcb4scBjnVx/T6rSMC4/Xnaszj9d51RWt3mz4vupt1etaHY/3qupl1Zsn7xrm7SGjG+DvXFydU105uhG4MQEe2I+zWr0Z8pHH6+Ju/X0S593Kv3919cfVH1bPqS4/XIuweAL8fBxptTDx0tGNAMB+nFZ9dvWz1VXVDRusq6vfbHX+8plT3BzMzG2rY23250ztr774pDMGADNydvWN1Rsb86F5RfXUHOPGbrmw8YFV3bS+/aQzBgAzcE71Xa22soz+4Lyh1d75p1Uftsmbhpn4tMb/zKmb1k+fdMYAYKAj1T+r/qbxH5gnqndX35Rnd9huX9X4nzV10/q9k84YDOAYSaDqPtULqmc23y0r51ZPaXVyzcMH9wKbcv7oBriZs0c3AB9KgAeeUP1Z9UmjG9mji1udWvPk/DeM7ePh7fkR4JkdH36wu85qtbfzp1veB9Sp1XdWv9Pq3HnYFmeMboCbOWd0A/ChBHjYTXeo/mer1fcle0z1klZbgGAbWIGfn6UtcLADBHjYPRdUL6oeMbiPdbmg1ZYaL79hG3hIG7hVAjzslvtWf1JdNLqRNbtz9QfVo0Y3Aod01egGuJkrRzcAH0qAh91xt+q5zfeUmcM6u3pO9fGjG4FDEODnx5wwOwI87IZzq9+q7jG6kQ07s/rN6qNGNwIHJCzOjxV4ZkeAh+13WquV6QeObmQid6yeXd1+dCNwAFeMboCb8UsVsyPAw/b7z9Unjm5iYveuntHq7bKwJG8a3QA3c9noBuBDCfCw3T6z+pbRTQzy2dWTRjcB+/Sa0Q1wM68a3QAAu+Mu1d9WN+xwfaC632EHEiZ0WnVt43921N/XF510xmAAK/Cwvb4vbyk9vXp6dXR0I7BH12bLxtxYgWd2BHjYTp9QfenoJmbiYdXXjG4C9uHloxvg7xyrXj26CfhQAjxsn1Oqp+QBzhv7j9U5o5uAPXrR6Ab4O3+ZU2iYIQEets/jqoeObmJm7lx9w+gmYI8E+Pn4o9ENALAbXtr4h77mWO/KKjzLcEZ1deN/ZlR94a3MFQxhBR62y2OqB49uYqZuXz1hdBOwB++vXjK6CbohK/DMlAAP22VXz3zfqyfm2QCW4ddHN0CvqN42ugk4EQEetseHV586uomZu2/1yNFNwB782ugG6FmjG4BbIsDD9nhczjvfi8eObgD24HU5TnI0AZ7ZEuBhezxudAML8QX5RYdl+KXRDeywl+T8d2ZMgIft8OE5OnKv7lw9YnQTsAdPb/VmVqb386MbgJMR4GE7fNLoBhbmU0Y3AHvwlupXRzexg95X/ezoJuBkBHjYDp88uoGFMV4sxQ+PbmAH/WT1jtFNwMk4Tg22w19UHz26iQV5b3Vudf3oRmAP/rx60OgmdsR11YXV6wf3ASdlBR6W79RWxyOyd2dV9xjdBOzRk0c3sEOelfDOAgjwsHwXVKeNbmKB7je6Adij36hePLqJHXCs+r7RTcBeCPCwfBeObmChLhrdAOzDt49uYAf8ZKvtiDB7Ajws371GN7BQdxndAOzD86vnjm5ii72r+nejm4C9EuBh+W4/uoGFOn90A7BP/7y6anQTW+o7cvIMCyLAw/KdObqBhbrj6AZgn15f/YfRTWyhl1c/OroJ2A8BHpbvnNENLNSpoxuAA3hq9aLRTWyRq6uvyJGyLIwAD8vnBJqD8R4MluhYq/3wrMe3tDpnHxZFgIflsyf2YG4Y3QAcwBNzIs26/FredMtCCfCwfO8d3cBCXTm6Adinr61+MN8ercObqq8Z3QQclAAPy2cF/mDeProB2IevbfWgpfB+eO+pPq965+hG4KAEeFi+t45uYKEEeJZCeF+fa6ovzL53Fk6Ah+W7dHQDC/Wm0Q3AHjwx4X1djlWPr543uhEAOK/VA5lqf/Xwgww2TOiJrULn6J+Vbal/ub/hB4DNenvjPxyXVMeqcw800jAN4X19dX319fsbfgDYvGc3/kNySfWagw0zTEJ4X19dXX3x/oYf5s8eeNgOfzy6gYX5w9ENwC14Yo6KXJerqs+unjW6EQA4kYc3fqVrSfWEgw0zbNTXZuV9XXVJ9dH7G34AmNZp1bsa/6G5hLq++vCDDTNsjG0z66ufr87e3/ADwBg/0fgPziXUHx10gGFDhPf11HuPjyUALManNf4DdAnlA545mTK8v7m6dqI/a+r6n9W99jn2ADDc0VYf0KM/SOdcV1cfdtABhjWbMry/srprdf/q9yf6M6eot7d6ORMALNZ/bPwH6pzrZw4+tLBWI8L7jX1B9dqJ/vxN1JXV91S33+N4A8Bsnd/q6LTRH65zrYcefGhhbaY8beaSbvmh7dNancj0VxP1so66uvqxbv4LCQAs2tMa/yE7x3r+YQYV1mT0yvuJnFJ9YfWSifo6SL2x+vZsgQNgS11QfaDxH7hzqmOtzsqHkeYY3j/UxdX3N4/naT5QPaf6/FbP+ADAVvuexn/4zql+9XDDCYe2hPB+Y0erx1RPqf56or5vaLW3/RerL6lud8h7AIBFOavVV86jg/Nc6pmttgnACEsL7ydyj+qrqv+venH1vjX1+/rqWdU3Vg+pTt1A77B1joxuANiYx7b6YGTl6dXXtApSMJUnVj/YNJ+3l1SPbrX9ZdOOVhdW9271C8Pdqo+ozj3+789u9ZDs9dUV1buP//Od1auP16ta/SIAANzIMxq/+j2nenpW4pnOXE6bAQAW5OxWX6mPDs5zKiGeKQjvAMCBfWyrs5NHB+c5lRDPJgnvAMChfUmrvaijg/OcSohnE4R3AGBtvr7xoXluJcSzTsI7ALB239/40Dy3+smEeA5v6qMihXcA2BFHqic3PjTPrazEcxhW3gGAjfvG7IkX4lkH4R0AmMyXVFc1PjjPqWynYT9smwEAJnff6hWND85zKivx7IWVdwBgmNtVP9F0YWQJZSWek7HyDgDMwqOrVzU+PJ+srpvwzxLiORHhHQCYlTOqb6ve2fiwfuN6b/Wfq7tUvzvhnyvEc2PCOwAwW7evvrvxQf7K6oequ92ot9smxDM94R0AWIQzq6+pXta0wf3V1be2+kXiRIR4piS8AwCLdHGrl0Bt6tSa11T/tXroHvsR4pmC8A4AbIW7Vl9cPa16YfvfanNF9eLqx6svr+5xwD6EeDZJeAdm6cjoBoCtcefq7tX5x+vsG/27q6u3V2+r3lL9zRr/3NtWv1E9Zo3XPJmnt9pWdGyiP48xnlj9YNN8Tl7S6hSoN0/wZwEAzMLp1bObbiXey562m5c0AQBMQIhnHYR3AIAJCfEchvAOADCAEM9BTBneL014BwC4CSGe/Zg6vN/4xWQAABwnxLMXwjsAwIwI8ZyM8A4AMENCPCcivAMAzJg3th7O7ao7Vfc6XudV5wzt6HCmfMOq02aAtfMmVmBXeGPrzZ1S3ed43fNGdUGrFeMzqzNu5Rrvry6v3lC9sXrT8bqkemn1jg30fRhTvmH10upRecMqAMCB7fpK/IdVn1d9T/W86t1tfgzeUP1a9R3Vo6vbbPwub5mVdwCABdqlEH+k+pjqO6s/bbrwerK6qtUzCU+sLtzcrd+M8A4AsGDbHuIfXv1wq60sowP7rdXLq29tsw95Cu8AAFtg20L8HapvqP5iwntaZ13falvP41udHLQuwjsAwBbZhhD/gOqZrR4mHR3C11Vvrv5tq19KDkN4BwDYQksN8Q9u9XDoHPa1b6quqp5W3f0A4yO8AwBssSWF+I+tfrPtDu4fWu+vvr+9r8gL7wAAO2Dub2y9Q/XU6roJe5xbXV79605+Nr03rAIA7JA5hvhTqidUb5+wr7nXa6t/eIKxEt4BAHbQnLbTfGz15xP2sqQ61uoXoPOOj5VtMwAAO2x0iD+l1VaRqyfsYan1lupHEt4BAHbeqO00/6B6/oR/rtp72TYDADBzU6/E/1arBzVHB1V187LyDgCwEFOvxKv5lZV3AICFEeJ3t4R3YHaOjG4AFu5Iq7dEXtjqNIxzq7OO1+2O/9+8q/pAq5fRvLN6Y/WaVlslWI7bVr9RPWZ0I0zm0upR1ZtHNwJwYwI87N3p1cOqT6kuru5TXdTJXypzMu9uFeRfXv1J9b+qV7Za9WOehPjdIbwDwEI9uPp31fOq97b5r+vfWf1q9fjq9hPcH/s39YOtavrywCoALMzdqm+rXtHYEHF19TvVV1ZnbvSO2a9dC/FXtFqJfnWrb43e1jS/0I4o4R2YPVtoYOVI9VnVN1Sf2q2/3n5q76p+qtULa14zuBdWtmk7zfXVy1r90nrJjepN1XtO8v93SnV+dUGr7WT3bbW17MHVR26u3Y2xbQYAFuCU6rGtwsvolb+91PXVb7YKSIy35JX4l1c/UH1uq4ev1+3u1ZdVP11dNoP7tfIOAAt3pPqn/f1Do0urY9UvtDr9hrGWFOLfUH13q9XyKZ3S6uHvp7da0R89DsI7ACzMxdUfNj40rKOurZ7W3x9ZyRhzDvHXV7/SamvIHLaGnVn9s+rPGj82wjsAzNxZ1fdV1zQ+NKy73lR9zvqGigOYW4i/tvqZ6n6bvOlD+szqhY0bo9ckvAPAbD2sel3jQ9Wm6xeqO65pzNi/uYT4n6/uteF7XadPqV7a9OP0jrxlFQBm50j1ja2OZBwdqqaqN1UPX8fgcSCnV89uzNy/qvr0zd/iRpxSfW2rF5xNOWYvqI5OcH8AwB7codUxf6MD9Yj6QPUvDj+EHNA5Tfuw5tXVv2/1y8PS3bXVN0lT/rx8xyR3BgCc1L1arUaODtKj6+nVaYccS/bvO5pujl9bPXSa25rUVzbdy6KurT5hmtsCAE7kga1exDI6PM+lnpM3uU7pgU23ZetXqttPc1tDXFz9n6YZy9fl5wQAhnhk0++hXUK9sDrvEOPK3pzWNC8FO1Z960T3NNpZrX5RmeLn5HsnuicA4LjHVO9vfFiea70sIX7TvrXNz+M11ZdOdUMzcbT60TY/tldXHzXRPQHAzntodWXjQ/Lc68WtVjRZvw9r89/+vLf6R1Pd0Az96zb/M/JHrU6vAgA26KLq7Y0Px0up5+TB1k34qTYf3j9xsruZrym+5di1bzgAYFJ3q17f+FC8tHr6AcaaW/axrfalb2q+rmm3V94/1H9psz8fb6huM9ndAMAOObWxr2Ffev3z/Q85t+A5bW6ejlVfMd2tLMKR6ifa7M/H1012NwCwQ/5r40PwkusD1cfte9T5UA9rs/P0pOluZVFOrX67zY37G9uOF2MBwGx8dpvdsrAr9Ybqjvsce27quW1ufn41D1SezB1a/R3e1Ph7mzEArMk/qN7R+PC7LfUL+xt+buRBbW5eXtt2v6RpXT6+1TMCm5iDN2UvPACsxW82PvRuW33+vmaAD3p6m5mPa1oFU/bm29rcz8YXT3gfALCVPrfxYXcb67Lq3H3MA6utR+9rM/PxHya8j21wpNX57ZuYi+dPeB8AsHXOrF7X+LC7rfXDe58Kqn/TZubh0jw8eRD3r65t/fNxrNW7JgCAA/iexofcba7r8hr5/Xhlm5kH570f3KZOpvpvU94EAGyLu1bvb3zI3fZ61l4nZMc9tM2M/y9OeRNb6JxW28HWPS/vyLciALBvznyfpo61Oteck3tq6x/766r7THkTW+rr2szPhm9GAGAfzq+ubHy43ZV69t6mZWcdrd7a+sf956a8iS12eptZhf+xKW8CAJbuPzU+1O5SHctK8Mk8os2M+UdPeRNb7ptb/xy9tTplypsAgKU6s7q88aF21+ope5mcHbWJXyh/Y9I72H5nVm9r/fP08ClvAuCWWE1g7j6/Om90Ezvoq6rbjW5ipjaxF9oRnuv1vuqnNnDdz93ANQFg6/xO41ejd7W+eg/zs2vuXF3fesf5slb76lmv+7f+n4n/PekdANwCK/DM2YdVnza6iR32RaMbmKFPaP3/3fzZVr8UsF6vqP58zdd8UHXGmq8JsG8CPHP2+OrU0U3ssEdVdxjdxMxs4ojNZ27gmqw8Y83XO636mDVfE2DfBHjm7J+MbmDHnZY9vx9q3QH+ldVfrvma/L1f2sA1vScBGE6AZ67OafW2S8b6x6MbmJGj1UPWfM3nr/l63NRl1aVrvqaTaIDhBHjm6pOyfWYOPin/nfigC6qz13xNAX7z1j3GFhaA4XwwM1ePGt0A1eoIz/uNbmImLlrz9W6oXrDma3Jzf7Dm69291dteAYYR4JkrAX4+PnF0AzOx7rfTvqJ6x5qvyc394Zqvd0qrEA8wjC0KzNFp1QNHN8HfeWT1rNFNzMD913y9V6z5epzY26q3V3da4zXvWb1qjdcD2BcBnjm6d/5uzsnjjhfrdcnoBnbIJa0/wAMMYwsNc7TuvcYwR68c3cAOWfcvSwI8MJQAzxwJ8OyCdR9vyC1bd4C/65qvB7AvAjxzJMCzC940uoEd8sY1X++sNV8PYF8EeObobqMbgAm8Z3QDO+TKNV9PgAeGEuCZo3NGNwAbds3xYhoCPLBVBHjmaN1vu4S5WXeg5OQEeGCrCPDMkQDPtrtqdAM7RoAHtooAzxzdbnQDsGFHRzewY9b9Xonr1nw9gH0R4JkjL3Fi23nOY1rrHm/foABDCfDM0XtHNwAbdnZ1ZHQTO2Td3+oJ8MBQAjxz5AE/tt3R6ozRTewQK/DAVhHgmSMBnl1w+9EN7JB1j7VvCYGhBHjmSIBnF9x7dAM7ZN1jbQUeGEqAZ47eNboBmMBFoxvYIese67es+XoA+yLAM0evHt0ATECAn85913w9/40ChhLgmaNLRjcAExDgp3FK9ZFrvuZr1nw9gH0R4JmjV45uACbwMaMb2BH3rc5c8zUFeGAoAZ45sgLPLrhbdZ/RTeyAT13z9d5TvW3N1wTYF2+8ZI4ur95a3WV0I1T1y9Uvjm5iBm5b/XTrfQHTo6tL13g9bu5Ra76e1XcAuAW/UN2gZlGffStztUte3XrH9lnTtr9zTqne2Xrn7McnvQOAE7CFhrn6g9ENUNX11QtHNzEjL17z9R6db0I36SHVHdZ8zRet+XoA+ybAM1cC/Dy8rHr36CZm5CVrvt4dq8es+Zr8vX+6gWv+8QauCbAvAjxzdWl12egm8IvUh1j3CnzV4zdwTVbfbHzJmq/5tzkDHpgBAZ45e+7oBuhXRjcwMy+v3rvma35ede6ar0l9enXnNV/TdjJgFgR45uyZoxvYca9v/VtGlu6a6nlrvuYZ1WPXfE3qyzZwTQEeAG7Fkeq1jT+FZVfre299inbSV7b+sf6rLKis072qa1v/PN17ypsAgKX6rsYH2V2tB+1hfnbRnVudzrPu8f6CKW9iy/331j8/fzbpHQDAgl1YHWt8mN21slXg5F7U+sf8z1vvS6J21UdUV7f++fk3U94EACzdcxsfaHetvnBPM7O7ntRmxv2zpryJLfVDbWZuLpzyJgBg6R7R+EC7S/X6vFzo1tyl1QOt6x77S6rTJ7yPbXO/NjMvfz7lTQDcGg9NsQQvqv5odBM75Aeq60Y3MXNvrZ6zgevep/pXG7juLjhS/Uh12gau/XMbuCYAbL1Pb/zK9C7UZdWZe5yTXfdZbWYO3lfdc8L72BaPbzPz8d7q/AnvAwC2yp80PuBue33ZnmeDo9Ub28w8PCcPtO7H+a2+FdnEXPzohPcBAFvnwa22dowOudtaL8u2uv369jY3H9844X0s2ZFWv/BsYg6OtdpXDwAcwlMbH3S3sY5Vn7qPeWDl3OrdbWZOrq4eOt2tLNa3tbmfi9+d8D4AYGudW72l8YF32+rH9zMJ3MQmXzb2mur2093K4jyizZw688H6zOluBQC22+MaH3i3qd5Y3W5fM8CNnV9d2ebm57nVbSa7m+W4oPqbNjfuTr4CgDX7qcYH322oY61O+OFw/kubnaefzfMJN3anVmfmb/Ln4uMnuxsA2BFnVC9vfABeen3/fgeeEzqvenubnasfnuxu5u3MVu+G2ORY//JkdwMAO+biVmc0jw7BS63n542r6/R1bX7Ovmuyu5mns6vfa7NjfG110VQ3BAC76PGtvu4eHYaXVm9stQ2B9TlavbTNz92PHP+zds2dqv/dNOMLAGzYv218IF5Svaf62AONNLfmE5vmF8pfqk6f6J7m4II2u+f9g3VZTv0BgMn8QOOD8RLq/dWjDjjG7M1PNc1cvqC6y0T3NNIntNnTZm5cnzXRPQEArd7G+D8aH5DnXNdVX3DA8WXvzq5e1TRz+rbqM6a5rckdafU22k2e837j+h+T3BUAcBO3qX6+8UF5jnVN9cUHH1r26ZOr65tmbq+v/lPbtS/+jtVvNd3Px5urO0xyZwDAzZxSPbXxgXlOdWXbu0o7Z5s+G/5D60+rj5vkzjbnSPWE6m+bbtyOVZ89xc0BACf373I6zQ2ttlgsPdQt1enVnzXtfF9f/WjLXE2+f6u3n079M/LdU9wcALA3X1a9r/EhelS9orrw0KPIYdy9aVeTP1hvq/5Vddbmb/HQ7t7qJVVT7XW/cf1O3nALALPzUdVfNj5MT10/0zLC2y54RPWBxvw9eEf15FZvip2be7ba7jZqbF7Xaq89ADBDZ7cKtKND9RT13uor1zNsrNHXNPbvxburH2r8dqrbVJ9X/UqrU5FG/pw8cMP3CgCswZc2ZjvDVPX71UeubbRYt6c0/u/IDdVft3pGZKrtVUdbfQvxQ9XbN3RP+6lr8tAqACzKea1elT7VEX9T1DuqL291ggfzdaT6ycb/fblxvbH66VYnv9xjTfd5avWA6puq36yumMF9frCuqx67pvsEGMYHPrvqIa0enBu9peAwrql+rPquViubzN/R6pnV40Y3cgveU11aXVK9slXAv+r4//49x//nU1ttSzu7Ore6fXWv6qLqvtW9W22VmZsbqq+unj66EQDgcD6telHjVwb3U9dXv9gqKLE8R1vN3+i/R7tW37KXyQEAluNTq+c3PmScrK6ofjBHQ26D06tfbvzfqV2o66tv2Nu0AABLdP/q+6rLGh88Plh/UX1dqy0LbI+jrbZxjf77tc31/uqL9johAMCyHa3+YasH/KY+ueZY9aetTgq534LtYKwAAAx+SURBVKZvlOG+PW8N3kRdXn3yPuYBANgiR1qtzH9D9evVu1pv0Li+1cumfqzV22PvPs1tMSNf0bgXGm1jvbG6eF8zALAgTqGBg/mIVqdu3Of4Py9s9VbHD57OcU6rEzqua/XSmCtafZ3/rur11WtvVC87/u/ZbQ+tfqn1Hee4q36vv3/nAwAAbNS51a82fgV7iXVd9eRW298AAGAyR1rti7+m8aF4KXVZ9rsDADDYg6qXNj4cz71+qdX2NQAAGO7U6l+3en5idFCeW722+kcHH1oAANic+1bPa3xonkNdU31vdeahRhQAACbwGdXLGx+iR9Vv53hIAAAW5pRWbxd9beMD9VT1vOph6xg8AAAY5TbVE6q/aHzA3lS9sHrkugYMAADm4Ej1mOp3q2OND92HrXdXP9LqFB4AANhqF1X/qXpN44P4fut/VV9RnbX2UQEAgJk7Uj2ielr11saH8xPV9dWLW720yoOpAABw3JHqgdW3VL9Tvbdxof3y6herL6vutMmbBthmR0Y3AMCkTq8e2mqP+QOP//Pi6ow1/zlXtHqT7J/dqF7dKsgDAACHcGr1lNa30v7aLBABbMwpoxsAYLjrWq2Yr/N6VtoBNkSABwCABRHgAQBgQQR4AABYEAEeAAAWRIAHAIAFEeABAGBBBHgAAFgQAR4AABZEgAcAgAUR4AEAYEEEeAAAWBABHgAAFkSABwCABRHgAQBgQQR4AABYEAEeAAAWRIAHAIAFEeABAGBBBHgAAFgQAR4AABZEgAcAgAUR4AEAYEEEeAAAWBABHgAAFkSABwCABRHgAQBgQQR4AABYEAEeAAAWRIAHAIAFEeABAGBBBHgAAFgQAR4AABZEgAcAgAUR4AFYtxtGNwCwzQR4AABYEAEeAAAWRIAHAIAFEeABAGBBBHgAAFgQAR4AABZEgAcAgAUR4AEAYEEEeAAAWBABHgAAFkSABwCABRHgAQBgQQR4AABYEAEeAAAWRIAHAIAFEeABAGBBBHgAAFgQAR4AABZEgAcAgAUR4AEAYEEEeAAAWBABHgAAFkSABwCABRHgAQBgQQR4AABYEAEeAAAWRIAHAIAFEeABAGBBBHgAAFgQAR4AABZEgAcAgAUR4AEAYEEEeAAAWJCjoxsAYIjbVY+svrT6t9Vjq9PXdO3TqztUt6neWl2zpusCAMBOuaD6V9UfV9dXN0xQ11Yvqb6zumjjdwgAAAt3++qbqz9rmsB+a/XS6knVh2/ypgEAYGnuWz21uqrxof1EdU31i9XDNjUAAACwBA+pfrfxAX0/9fvVozcxGAAAMFcXtVrRPtb4QH7Qel71gHUPDAAAzMnZ1Q9U1zU+gK+jrq1+rDp/nYMEAABz8JnV6xsfujdRb63+ydpGCgAABrpd9YzGh+wp6hmtzpQHAIBFum/1fxofrKesN1Uft47BAwCAKf3T5nss5KbrA9VXHn4IAQBg845U39v4ED2Hemp19HDDCQAAm3O0+u+ND85zql+vTj/MoAIAwCacXv1S4wPzHOu3qjMOPrQAALBet6me2/igPOf6g+rMgw4wAACsy5HqpxsfkJdQz6lOPdgwAwDAejyl8cF4SfXjBxtmAAA4vCc1PhAvsb7zIIMNAACH8ajq2saH4SXWserz9z/kAABwMHet3tz4ILzkury6534HHgAA9uvU6kWND8DbUC9udYIPwNbyNjuA8b6t+vLRTWyJj6hOqZ4/uhEAALbTfar3NX7lepvq2uqB+5kEAADYiyPV7zc+8G5jvbjVSjwAAKzNVzY+6G5z/fO9TwXAchwZ3QDAjrptdWn1D0Y3ssXeUd2runJ0IwDr5OtFgDGemPC+aXes/uXoJgDWzQo8wPTOrV5TnT+6kR3w7urerc6IB9gKVuABpvf1Ce9TuX31TaObAFgnK/AA0zq1el2r88qZxjtabVf6wOhGANbBCjzAtD4/4X1qd6y+cHQTAOsiwANM6+tHN7Cj/sXoBgDWxRYagOlc2OroSMZ4UPXy0U0AHJYVeIDpfNHoBnacbTTAVhDgAabzBaMb2HH/eHQDAOtgCw3ANC6oXpv/7o523+qS0U0AHIYVeIBpfF7C+xx87ugGAA5LgAeYxiePboCqPmV0AwCHZTUIYBpvru46ugl6V6tz4Y+NbgTgoKzAA2zevRLe5+K86j6jmwA4DAEeYPM+fnQD3MQjRjcAcBgCPMDmXTy6AW7iAaMbADgMAR5g8+49ugFu4p6jGwA4DAEeYPME+HkxH8CiOYUGYPMub/XwJPPw/uqs6obRjQAchBV4gM06J+F9bs6o7jS6CYCDEuABNuuc0Q1wQuYFWCwBHmCzzhrdACdkXoDFEuABNuvs0Q1wQuYFWCwBHmCzrPTOk3kBFkuABwCABRHgATbrytENcELmBVgsAR5gs64a3QAn9J7RDQAclAAPsFlWeufJvACLJcADbJagOE/mBVgsAR5gs96fbTRzc3UCPLBgAjzA5l06ugFu4tXV9aObADgoAR5g8y4Z3QA3YT6ARRPgATZPYJwX8wEsmgAPsHkC47yYD2DRBHiAzXv56Aa4ib8Y3QDAYRwZ3QDADjhSvbm6y+hG6PLqTtWx0Y0AHJQVeIDNu6H6w9FNUK3mQXgHFk2AB5jGH4xugMo8AFtAgAeYxvNHN0BlHoAtIMADTOPV1V+PbmLHvSZzAGwBAR5gOs8c3cCOe0ar5xEAFs0pNADTuVv1huro6EZ21EXVpaObADgsK/AA0/mb6gWjm9hRf5LwDmwJAR5gWj8zuoEd9YzRDQCsiy00ANM6vdXDlHcb3cgOeUd1z+qq0Y0ArIMVeIBpXV39v6Ob2DH/LeEd2CJW4AGmd2b1+upOg/vYBVdU9zj+T4CtYAUeYHrvq546uokd8QMJ78CWsQIPMMbtqldWdx3dyBZ7e6ujI981uhGAdbICDzDGe6onjW5iy31bwjsAAGv2+63eDqrWWy/Mt8wAAGzAfaoPND7wblNdWz1oP5MAsCRe5w0w1jur06pHjm5ki3x/9czRTQAAsL1OyVaaddVLqtvsb/gBAGD/7lK9pfEBeMl1eXXBPscdAAAO7NHV9Y0PwkusY9Xn73/IAQDgcP5948PwEuu7DjLYAACwDj/Q+EC8pPqZHBkJAMBAp1TPanwwXkI9uzr1YMMMAADrc3pOprm1+uPqjIMOMAAArNuZ1XMaH5TnWL9f3e7gQwsAAJtxtPqJxgfmOdWvVLc9zKACAMAmHame3PjgPIf6oVbPCAAAwOz9P9X7Gx+iR9QHqicefggBAGBa96v+T+MD9ZT1+urhaxg7AAAY4pzqZxsfrKeoX6vOW8+wAQDAWI+r/qbxIXsT9ZbqS9c3VAAAMA9ntXrA9erGh+511PWt3qx6/hrHCAAAZueB1fMbH8APUy+oHrzugQEAgDn7hOrZ1bHGB/K91gurz9nEYAAAwFJ8bPXL1bWND+gnquuqX68+blMDAAAAS3SH6mtbrXKPDu03tDoC88nVPTZ4zwAAsBUurr67enHTrcxfV/3v6j9XD9j8LQJsvyOjGwBgiNtVn1w9utW++Yuqc9dw3fdUl1Z/0uqh2hdUV6zhugAcJ8AD8EF3qe5b3ae6oNULlM6+UZ1Xvbu66kZ1efWGVqH9kurNUzcNAAAAAAAAAAAAAAAAAAAAAAAAAAAAAAAAAAAAAAAAAAAAAAAAAAAAAAAAAAAAAAAAAAAAAAAAAAAAAAAAAAAAAAAAAAAAAAAAAAAAAAAAAAAAAAAAAAAAAAAAAAAAAAAAAAAAAAAAAAAAAAAAAAAAAAAAAAAAAAAAAAAAAAAAAAAAAAAAAAAAAAAAAAAAAAAAAAAAAAAAAAAAAAAAAAAAAAAAAAAAAAAAAAAAAAAAAAAAAAAAAAAAAAAAAAAAAAAAAAAAAAAAAAAAAAAAAAAAAAAAAAAAAAAAAAAAAAAAAAAAAAAAAAAAAAAAAAAAAAAAAAAAAAAAAAAAAAAAAAAAAAAAAAAAAAAAAAAAAAAAAAAAAAAAAAAAAAAAAAAAAAAAAAAAAAAAAAAAAAAAAAAAAAAAAAAAAAAAAAAAAAAAAAAAAAAAAAAAAAAAAAAAAAAAAAAAAAAAAAAAAAAAAAAAAAAAAAAAAAAAAAAAAAAAAAAAAAAAAAAAAAAAAAAAAAAAAAAAAAAAAAAAAAAAAAAAAAAAAAAAAAAAAAAAAAAAAAAAAAAAAAAAAAAAAAAAAAAAAAAAAAAAAAAAAAAAAAAAAAAAAAAAAAAAAAAAAAAAAAAAAAAAAACL8H8BTCteOkLhY6oAAAAASUVORK5CYII=;imageBackground=none;" parent="1" vertex="1">
          <mxGeometry x="795" y="380" width="132" height="132" as="geometry" />
        </mxCell>
        <mxCell id="cSIzYIwrL9WgtXfXf9EQ-4" style="edgeStyle=orthogonalEdgeStyle;rounded=0;orthogonalLoop=1;jettySize=auto;html=1;entryX=0;entryY=0.5;entryDx=0;entryDy=0;" parent="1" target="GqR5pssrANM1ScbAsOte-16" edge="1">
          <mxGeometry relative="1" as="geometry">
            <Array as="points">
              <mxPoint x="215" y="404" />
              <mxPoint x="215" y="468" />
            </Array>
            <mxPoint x="159.18000000000006" y="404.3225806451612" as="sourcePoint" />
          </mxGeometry>
        </mxCell>
        <mxCell id="cSIzYIwrL9WgtXfXf9EQ-7" value="" style="fillColor=#28A8E0;verticalLabelPosition=bottom;sketch=0;html=1;strokeColor=#ffffff;verticalAlign=top;align=center;points=[[0.145,0.145,0],[0.5,0,0],[0.855,0.145,0],[1,0.5,0],[0.855,0.855,0],[0.5,1,0],[0.145,0.855,0],[0,0.5,0]];pointerEvents=1;shape=mxgraph.cisco_safe.compositeIcon;bgIcon=ellipse;resIcon=mxgraph.cisco_safe.capability.identity_authorization;" parent="1" vertex="1">
          <mxGeometry x="474.5" y="296" width="23" height="23" as="geometry" />
        </mxCell>
        <mxCell id="oCE4v1c2VACCqcoD-HpO-1" value="" style="rounded=1;whiteSpace=wrap;html=1;fillColor=#e8bd1f;strokeColor=#e8bd1f;opacity=20;arcSize=21;strokeWidth=2;" parent="1" vertex="1">
          <mxGeometry x="265" y="200" width="104.99" height="290" as="geometry" />
        </mxCell>
        <mxCell id="oCE4v1c2VACCqcoD-HpO-7" value="React" style="shape=image;verticalLabelPosition=bottom;labelBackgroundColor=none;verticalAlign=top;aspect=fixed;imageAspect=0;image=https://upload.wikimedia.org/wikipedia/commons/thumb/a/a7/React-icon.svg/512px-React-icon.svg.png?20220125121207;" parent="1" vertex="1">
          <mxGeometry x="283.24" y="309.21999999999997" width="68.51" height="59.55" as="geometry" />
        </mxCell>
        <mxCell id="oCE4v1c2VACCqcoD-HpO-8" value="Carrier" style="shape=mxgraph.signs.transportation.truck_1;html=1;pointerEvents=1;fillColor=default;strokeColor=default;verticalLabelPosition=bottom;verticalAlign=top;align=center;strokeWidth=1;shadow=0;flipH=1;" parent="1" vertex="1">
          <mxGeometry x="65" y="380" width="94.17999999999998" height="48.51999999999999" as="geometry" />
        </mxCell>
        <mxCell id="oCE4v1c2VACCqcoD-HpO-9" value="" style="shape=image;verticalLabelPosition=bottom;labelBackgroundColor=default;verticalAlign=top;aspect=fixed;imageAspect=0;image=data:image/svg+xml,PHN2ZyB4bWxucz0iaHR0cDovL3d3dy53My5vcmcvMjAwMC9zdmciIHZpZXdCb3g9IjAgMCAxMDAgMTI1IiB4bWw6c3BhY2U9InByZXNlcnZlIj4mI3hhOyAgPGcgdHJhbnNmb3JtPSJ0cmFuc2xhdGUoMCAxNCkiPiYjeGE7ICAgIDxwYXRoIGQ9Ik01MS4yNjMgMjMuMzMzYzIuNTQ5LjYxNSA2LjUwMiAyLjQ1OCA3LjkzIDYuMjY1LjgzIDIuMjA5Ljc3NCA3LjA2Mi41ODYgMTAuNzQ3LS42NzQgMy45MDYtMi4yMzQgNi43NTQtNC42NjIgOC40ODItMy4yNSAyLjMxMy03LjMyMiAyLjA3NS05LjI4OCAxLjc3NC0yLjY4My0xLjMxMi00LjI2Ni01LjMwMS00Ljk1My04LjU1Ny0uODA0LTMuODA1LS4zMTYtNS43ODktLjMxNi01Ljc4OVYzNC44M2MtLjcxNC0xLjkwMy0uMDc5LTcuNTMzLjg3Mi05LjQzNy45NTEtMS45MDMgMy45NzQtMS45MzQgNC44MzctMi42MTcgMS4yMDgtLjk1NCAyLjgzMy01LjA4IDMuMzA5LTYuMzM0LTkuOTA2IDEuMjQ1LTEyLjM3OSA5LjU5LTEyLjg2MiAxMS44MDYtMS4xODEgMS4xMjYtMi4xNTEgMy4xNDgtMS4xNjMgNS4zMzYtLjM1NC40NTUtLjcxIDEuMDc4LS44NTIgMS44NjEtLjExOC42NTQtLjExNCAxLjYxMy40NDMgMi43MjktLjk4NCAxLjkwNi0zLjA4NCA3LjIzNi0uNzg0IDE0LjgwOSAyLjIxOCA3LjMwOCAxLjI3NSA5LjI2My42NjYgMTAuMTU0LTEuNDkzLjU4OC02LjQxNyAyLjgxNi04LjQ4MiA3LjM1NC0uNTkxLjI2Mi0xLjI0NC42ODQtMS44NTkgMS4yODJWODMuNjVoNTAuNzcxVjYzLjE3Yy0xLjQ3OS0yLjE3Mi0zLjIwNC00LjUyMS00LjcwMy02LjA2OC0uNDEyLTIuMzY5LTIuNDUzLTE0LjI1NS0yLjUyMi0xOC40MDgtLjAzOS0yLjM0MS0uMTI5LTcuODI0LTIuMTI5LTEyLjc5MS0yLjMyOC01Ljc4Ny02LjU5NS05LjA2NC0xMi4zOTItOS41NTVoLTMuMTRjLTMuNjk3IDYuMDczLS4xMzMgNi43ODYuNjkzIDYuOTg1em05LjI3OCAzNy43MDZjMCAuNjM5LjI0OCAxLjIxNS42NDkgMS42NDYtLjM0OC4zMDctLjU3MS43NDgtLjU3MSAxLjI0OCAwIC4yMjcuMDQ3LjQ0LjEyOS42NDEtLjUxOS40ODQtLjg0MiAxLjE3Mi0uODQyIDEuOTM4IDAgLjQ2NS4xMi45LjMyOSAxLjI4MS0uNTM4LjQzOC0uODg3IDEuMTA0LS44ODcgMS44NTIgMCAuMzgzLjA5NC43NDQuMjU2IDEuMDY0LTIuMzEzIDEuMDY4LTQuOTM0IDQuMzI2LTQuOTM0IDQuMzI2LTUuMjMyLjM5Ni0xNy4yMDgtMS41MDgtMTcuNjg0LTUuNDczLS40NzctMy45NjUgMTAuODY0LTEyLjQ0OSAxMC44NjQtMTIuNDQ5IDAtLjQ4OC0uMjcyLTIuNzAzLS40OC00LjMyNC4yOTYuMDE2LjYwNi4wMjUuOTI4LjAyNSAyLjM1NCAwIDUuMzQxLS40NzYgNy45NjgtMi4zMzggMS4yNTgtLjg5MiAyLjMxNC0yLjAyMyAzLjE3NC0zLjM4LjE3NSA1LjEwNCAxLjMzOCAxMS4yODYgMS4zMzggMTEuMjg2bC43NjcuNjk3Yy0uNjA4LjQ0MS0xLjAwNCAxLjE1My0xLjAwNCAxLjk2eiIvPiYjeGE7ICAgIDxwYXRoIGQ9Ik04OC40MjYgOTIuNzIzYy4yNzEtLjE3OC41MzEtLjM4Ny43NzEtLjYyNyAxLjg2Mi0xLjg2MSAxLjg2Mi00Ljg4MSAwLTYuNzQtLjUyMy0uNTI0LTEuMTQtLjg5Ni0xLjc5NC0xLjEyNS43OTctMi42NzYgMi4yNjUtOS44NDgtLjY0Ny0yMC4yMDEgMS43ODUtLjMwNSAzLjE0Ni0xLjg1NCAzLjE0Ni0zLjcyNyAwLTEuMTM5LS41MDQtMi4xNTgtMS4yOTktMi44NTIgMS44My0xLjM2NSAzLjA4OC00LjE4OCAzLjA4OC03LjQ1MiAwLTMuMjYzLTEuMjU4LTYuMDg1LTMuMDg4LTcuNDUuNzk1LS42OTQgMS4yOTktMS43MTMgMS4yOTktMi44NTEgMC0xLjg3MS0xLjM1OS0zLjQyMS0zLjE0Ni0zLjcyNiAyLjU4Mi05LjE4MiAxLjcyNC0xNS44Ni45MzgtMTkuMTIxLjU0Ny0uMjMxIDEuMDU5LS41NjYgMS41MDUtMS4wMTIgMS44NjItMS44NjIgMS44NjItNC44OCAwLTYuNzQyLS4yMzktLjI0LS41LS40NDktLjc3Mi0uNjI3LjQyNC0uMi44MjYtLjQ3NyAxLjE4Ni0uODM1IDEuNDk0LTEuNDkzIDEuNjI4LTMuNzgyLjI5OS01LjExLTEuMzI3LTEuMzI5LTMuNjE2LTEuMTk1LTUuMTEuMjk4LS4zNTYuMzU3LS42MzMuNzYxLS44MzQgMS4xODUtLjE3OS0uMjc0LS4zODgtLjUzMy0uNjI3LS43NzMtMS44Ni0xLjg2MS00Ljg4MS0xLjg2MS02Ljc0MSAwLS4zNDEuMzQtLjYxMy43Mi0uODMgMS4xMjMtMS45MzktLjY5Mi02LjEwMy0xLjY1NC0xMS45NTEtLjE4OS0uNTYtMS4zOTQtMS45MTgtMi4zOC0zLjUxMi0yLjM4LTEuMTQgMC0yLjE1Ni41MDItMi44NTMgMS4yOTdDNTYuMDg2IDEuMjU3IDUzLjI2NSAwIDUwIDBjLTMuMjYzIDAtNi4wODQgMS4yNTctNy40NSAzLjA4Ni0uNjkzLS43OTQtMS43MTQtMS4yOTYtMi44NTEtMS4yOTYtMS41OTMgMC0yLjk1NC45ODYtMy41MTIgMi4zOC01Ljg1Mi0xLjQ2NC0xMC4wMTMtLjUwMy0xMS45NTIuMTg5LS4yMTUtLjQwMy0uNDktLjc4My0uODMtMS4xMjMtMS44NjItMS44NjEtNC44OC0xLjg2MS02Ljc0MiAwLS4yNC4yNC0uNDQ5LjUtLjYyNi43NzMtLjItLjQyNC0uNDc5LS44MjgtLjgzNC0xLjE4NS0xLjQ5NC0xLjQ5NC0zLjc4Mi0xLjYyNy01LjExMS0uMjk4LTEuMzI4IDEuMzI5LTEuMTkzIDMuNjE3LjMgNS4xMS4zNTYuMzU4Ljc2MS42MzUgMS4xODUuODM1LS4yNzUuMTc5LS41MzQuMzg3LS43NzUuNjI4LTEuODYgMS44NjEtMS44NiA0Ljg4IDAgNi43NDIuNDQ2LjQ0NS45NTguNzgzIDEuNTA1IDEuMDE0LS43ODQgMy4yNjItMS42NDUgOS45MzkuOTM4IDE5LjExOS0xLjc4NS4zMDUtMy4xNDYgMS44NTUtMy4xNDYgMy43MjYgMCAxLjEzOC41MDIgMi4xNTcgMS4yOTggMi44NTFDOS41NjUgNDMuOTE2IDguMzEgNDYuNzM5IDguMzEgNTBjMCAzLjI2NCAxLjI1NyA2LjA4NSAzLjA4NyA3LjQ1MS0uNzk0LjY5My0xLjI5OCAxLjcxMy0xLjI5OCAyLjg1MiAwIDEuODcxIDEuMzU5IDMuNDIyIDMuMTQ2IDMuNzI3LTIuOTE0IDEwLjM1NS0xLjQ0NiAxNy41MjUtLjY0OCAyMC4yMDMtLjY1NC4yMjktMS4yNzEuNjAxLTEuNzk1IDEuMTIzLTEuODYgMS44NjEtMS44NiA0Ljg4MSAwIDYuNzQyLjI0LjIzOC41LjQ0Ny43NzMuNjI3LS40MjQuMTk5LS44MjcuNDc4LTEuMTg1LjgzNC0xLjQ5MyAxLjQ5NC0xLjYyOCAzLjc4MS0uMyA1LjEwOSAxLjMyOSAxLjMzIDMuNjE3IDEuMTk1IDUuMTExLS4yOTkuMzU2LS4zNTUuNjM0LS43Ni44MzQtMS4xODQuMTc4LjI3Mi4zODcuNTMyLjYyNy43NzEgMS44NjEgMS44NjIgNC44OCAxLjg2MiA2Ljc0MiAwIC42MjUtLjYyMyAxLjAzNS0xLjM3OSAxLjIzOS0yLjE3OSAyLjA4My42NzEgNi4wNzQgMS40MjEgMTEuNTQzLjA1Mi41NTggMS4zOTYgMS45MTggMi4zODEgMy41MTIgMi4zODEgMS4xMzcgMCAyLjE1Ny0uNTAyIDIuODUxLTEuMjk3IDEuMzY2IDEuODMxIDQuMTg4IDMuMDg3IDcuNDUgMy4wODcgMy4yNjQgMCA2LjA4NS0xLjI1NiA3LjQ1MS0zLjA4Ni42OTMuNzk1IDEuNzEzIDEuMjk3IDIuODUxIDEuMjk3IDEuNTk1IDAgMi45NTUtLjk4NCAzLjUxMy0yLjM4MSA1LjQ3IDEuMzY5IDkuNDYxLjYxOSAxMS41NDMtLjA1MS4yMDUuNzk5LjYxNSAxLjU1NSAxLjI0IDIuMTc4IDEuODYgMS44NjMgNC44NzkgMS44NjMgNi43MzkgMCAuMjQtLjIzOC40NDktLjQ5OC42MjctLjc3MS4yMDEuNDI0LjQ3OS44MjguODM0IDEuMTg1IDEuNDk0IDEuNDk0IDMuNzgzIDEuNjI5IDUuMTExLjI5OSAxLjMyOS0xLjMyOCAxLjE5NC0zLjYxNC0uMy01LjEwOC0uMzU2LS4zNjMtLjc1Ny0uNjQtMS4xODItLjgzOXptLTkuNzg2LTUuNzc0SDIxLjQ5NVYxMy4yNzNINzguNjR2NzMuNjc2eiIvPiYjeGE7ICA8L2c+JiN4YTs8L3N2Zz4=;" parent="1" vertex="1">
          <mxGeometry x="84.9970501779768" y="380" width="23.947825238259266" height="29.93342978527959" as="geometry" />
        </mxCell>
        <mxCell id="dbxVvf7TO5qbxegbxdF4-2" value="Frontend" style="image;aspect=fixed;perimeter=ellipsePerimeter;html=1;align=left;shadow=0;dashed=0;fontColor=#000000;labelBackgroundColor=none;fontSize=12;spacingTop=3;image=img/lib/ibm/users/browser.svg;labelPosition=right;verticalLabelPosition=middle;verticalAlign=middle;spacingRight=0;spacing=2;imageBackground=none;spacingLeft=6;" parent="1" vertex="1">
          <mxGeometry x="272.5" y="209.5" width="25" height="25" as="geometry" />
        </mxCell>
        <mxCell id="dbxVvf7TO5qbxegbxdF4-3" value="IoT Device" style="image;aspect=fixed;perimeter=ellipsePerimeter;html=1;align=left;shadow=0;dashed=0;fontColor=#000000;labelBackgroundColor=none;fontSize=12;spacingTop=3;image=img/lib/ibm/analytics/analytics.svg;labelPosition=right;verticalLabelPosition=middle;verticalAlign=middle;spacingLeft=4;" parent="1" vertex="1">
          <mxGeometry x="272.5" y="504.14" width="25" height="25" as="geometry" />
        </mxCell>
      </root>
    </mxGraphModel>
  </diagram>
</mxfile>
